<svg id="Layer_1" data-name="Layer 1" xmlns="http://www.w3.org/2000/svg" xmlns:xlink="http://www.w3.org/1999/xlink" viewBox="0 0 328.61 97.04"><defs><clipPath id="clip-path" transform="translate(-17.6 -19.21)"><polygon points="245.32 109.35 245.32 26.11 346.21 19.21 346.21 116.25 245.32 109.35" style="fill:none"/></clipPath></defs><title>Untitled-2</title><g style="isolation:isolate"><polyline points="48.83 6.6 36.28 5.89 36.28 40.33 13.8 40.09 13.8 4.61 0 3.83 0 92.48 13.8 91.7 13.8 55.25 36.28 55.04 36.28 90.42 48.83 89.71 48.83 6.6" style="fill:#545454"/><path d="M124.56,29.11l-10.63-.6V49q0,1.51,0,2.9t-0.14,2.66q-0.1,1.27-.24,2.41t-0.33,2.16q-0.18,1-.41,2t-0.53,1.75a16,16,0,0,1-.64,1.55,13.29,13.29,0,0,1-.75,1.35,11.31,11.31,0,0,1-.87,1.17,9.92,9.92,0,0,1-1,1,9.42,9.42,0,0,1-1.08.82,9.74,9.74,0,0,1-1.19.66,11.36,11.36,0,0,1-1.33.51,13,13,0,0,1-1.44.36,15.71,15.71,0,0,1-1.57.22q-0.82.07-1.71,0.08H98.52q-0.91,0-1.75-.06t-1.63-.2a14.45,14.45,0,0,1-1.5-.34,12.58,12.58,0,0,1-1.39-.49A9.26,9.26,0,0,1,91,68.77a9,9,0,0,1-1.13-.83,9.48,9.48,0,0,1-1-1,10.84,10.84,0,0,1-.91-1.23,13.54,13.54,0,0,1-.77-1.41q-0.36-.76-0.67-1.63t-0.57-1.84q-0.26-1-.46-2.05t-0.34-2.26Q85,55.29,84.9,54t-0.15-2.77q-0.05-1.45-.05-3V26.85l-12-.68V47.84q0,4,.35,7.61a56.89,56.89,0,0,0,1.06,6.77,41.93,41.93,0,0,0,1.76,5.92,32.14,32.14,0,0,0,2.45,5.08,25.6,25.6,0,0,0,3.05,4.16A21.14,21.14,0,0,0,85,80.55a20,20,0,0,0,4.14,2.2A22.07,22.07,0,0,0,93.79,84v23.38l11.26-.64V83.81a21.64,21.64,0,0,0,4.47-1.41,19.64,19.64,0,0,0,3.89-2.29A21,21,0,0,0,116.74,77a26,26,0,0,0,2.8-4,31,31,0,0,0,2.21-4.8,40.59,40.59,0,0,0,1.57-5.54,55.26,55.26,0,0,0,.93-6.29q0.31-3.34.31-7.06V29.11" transform="translate(-17.6 -19.21)" style="fill:#545454"/><path d="M148.89,30.49l-19.07-1.08V42.62L140,43l8.7,0.32a12.28,12.28,0,0,1,1.26.11,11,11,0,0,1,1.2.24,10.24,10.24,0,0,1,1.13.36,9.9,9.9,0,0,1,1.07.49,11.25,11.25,0,0,1,1,.6,10.59,10.59,0,0,1,1.79,1.48,11.16,11.16,0,0,1,.78.89,11.49,11.49,0,0,1,.67,1q0.32,0.5.59,1t0.51,1.13q0.24,0.58.44,1.21t0.35,1.27q0.15,0.64.25,1.31t0.15,1.36q0,0.69,0,1.4t0,1.42q0,0.7-.15,1.36t-0.25,1.31q-0.15.64-.35,1.26t-0.44,1.19q-0.24.58-.53,1.12t-0.61,1q-0.33.5-.7,1a10.74,10.74,0,0,1-.78.87,10.32,10.32,0,0,1-1.78,1.42,10.93,10.93,0,0,1-1,.56,9.72,9.72,0,0,1-1.06.45,9.85,9.85,0,0,1-1.12.33,10.6,10.6,0,0,1-1.19.2,12.05,12.05,0,0,1-1.26.07l-8.7,0-10.14.05v34.51l10.14-.58v-21l8.93-.22a21.63,21.63,0,0,0,2.31-.18,19,19,0,0,0,2.18-.42,17.22,17.22,0,0,0,2.05-.66,16.36,16.36,0,0,0,1.92-.9,18.81,18.81,0,0,0,3.42-2.41,19.42,19.42,0,0,0,1.49-1.48,20.9,20.9,0,0,0,1.35-1.66q0.64-.87,1.21-1.83t1.06-2q0.49-1,.91-2.13t0.76-2.28q0.33-1.19.59-2.41t0.42-2.5q0.17-1.27.26-2.59t0.09-2.69q0-1.37-.08-2.69t-0.24-2.6q-0.16-1.28-.41-2.51t-0.58-2.43q-0.33-1.18-.74-2.3T166,42.68q-0.48-1-1-2t-1.2-1.89A20.9,20.9,0,0,0,162.36,37a19.9,19.9,0,0,0-1.5-1.54,19.64,19.64,0,0,0-1.64-1.35A20.12,20.12,0,0,0,157.42,33a17.65,17.65,0,0,0-1.92-1,18,18,0,0,0-2.06-.74,19.2,19.2,0,0,0-2.2-.5,21.4,21.4,0,0,0-2.35-.26" transform="translate(-17.6 -19.21)" style="fill:#545454"/><polyline points="179.41 14.01 155.02 12.63 155.02 83.68 179.74 82.28 179.74 70.4 163.91 70.98 163.91 53.74 177.27 53.62 177.27 41.73 163.91 41.59 163.91 25.32 179.41 25.9 179.41 14.01" style="fill:#545454"/><path d="M209.41,45.56l-8.1-.3,8.1,0.3m8.93-11.13-17-1v11.8l8.13,0.3,8.72,0.32a10.89,10.89,0,0,1,2,.25,8.6,8.6,0,0,1,1.76.6,7.66,7.66,0,0,1,1.51.93,7.93,7.93,0,0,1,1.27,1.27,8.39,8.39,0,0,1,1,1.6,11.07,11.07,0,0,1,.71,1.94,15.74,15.74,0,0,1,.43,2.28,22.93,22.93,0,0,1,.14,2.63,19.4,19.4,0,0,1-.19,2.76,13.53,13.53,0,0,1-.56,2.39,10.18,10.18,0,0,1-.93,2A8.79,8.79,0,0,1,224,66.26a9.92,9.92,0,0,1-1.68,1.38,12.18,12.18,0,0,1-2.08,1.08,16.57,16.57,0,0,1-2.48.78,23.78,23.78,0,0,1-2.9.48,6.66,6.66,0,0,0-1.07.17,5.26,5.26,0,0,0-.95.33A4.49,4.49,0,0,0,212,71a4.29,4.29,0,0,0-.69.65,4.43,4.43,0,0,0-.54.81,5.28,5.28,0,0,0-.38,1,7,7,0,0,0-.23,1.11,10,10,0,0,0-.08,1.26,8.5,8.5,0,0,0,.14,1.5,9.84,9.84,0,0,0,.41,1.53,12.25,12.25,0,0,0,.68,1.56,15.94,15.94,0,0,0,.94,1.58l11.87,18,10.47-.59L221.37,78.8a18,18,0,0,0,1.85-.58,15.39,15.39,0,0,0,1.68-.75,13.75,13.75,0,0,0,1.52-.92,13,13,0,0,0,1.36-1.09q0.63-.59,1.21-1.21T230.08,73q0.51-.66,1-1.36t0.83-1.45q0.39-.73.72-1.5t0.6-1.56q0.27-.79.49-1.61t0.38-1.65q0.16-.85.28-1.69t0.2-1.66q0.08-.82.12-1.63t0-1.61q0-1.34-.08-2.6t-0.23-2.44Q234.24,51,234,49.94t-0.54-2.14q-0.31-1-.68-2T232,44q-0.42-.88-0.9-1.67a17.42,17.42,0,0,0-1-1.51,17.81,17.81,0,0,0-1.15-1.37,15.89,15.89,0,0,0-1.24-1.2,14.88,14.88,0,0,0-1.35-1,14.69,14.69,0,0,0-1.45-.87,15.43,15.43,0,0,0-1.54-.73,15.13,15.13,0,0,0-1.6-.55,15.34,15.34,0,0,0-1.67-.37,16,16,0,0,0-1.73-.19" transform="translate(-17.6 -19.21)" style="fill:#545454"/></g><g style="isolation:isolate"><g style="clip-path:url(#clip-path)"><path d="M306,45.48l-5.86.2V89L306,89.14a17.34,17.34,0,0,0,1.89,0,15.51,15.51,0,0,0,1.82-.25,14.47,14.47,0,0,0,1.75-.46,14.16,14.16,0,0,0,1.68-.68,15.52,15.52,0,0,0,1.59-.84,15.1,15.1,0,0,0,2.82-2.21,15.82,15.82,0,0,0,1.22-1.37,16.89,16.89,0,0,0,1.11-1.5,19,19,0,0,0,1-1.66q0.45-.87.84-1.81t0.72-2q0.33-1,.57-2t0.41-2.16q0.16-1.1.25-2.26t0.08-2.36q0-1.21-.08-2.38t-0.25-2.3q-0.17-1.13-.42-2.21t-0.59-2.11q-0.33-1-.73-2t-0.87-1.84q-0.47-.88-1-1.69a19,19,0,0,0-1.13-1.54,17.78,17.78,0,0,0-1.24-1.38A16.81,16.81,0,0,0,316,48.86a16.14,16.14,0,0,0-3-1.92,13.16,13.16,0,0,0-1.65-.7,13.49,13.49,0,0,0-1.72-.47,14.65,14.65,0,0,0-1.79-.25,16.69,16.69,0,0,0-1.86,0" transform="translate(-17.6 -19.21)" style="fill:#545454"/><path d="M291.24,100.08V34.55L306,33.81a26.6,26.6,0,0,1,2.86,0,23.81,23.81,0,0,1,2.76.32,22,22,0,0,1,2.66.64,21.26,21.26,0,0,1,2.55,1,23.33,23.33,0,0,1,4.7,2.73,24.28,24.28,0,0,1,2.11,1.77,26.41,26.41,0,0,1,1.95,2,27.82,27.82,0,0,1,1.75,2.27q0.83,1.2,1.56,2.51t1.35,2.75q0.63,1.44,1.14,3T332.24,56q0.39,1.64.65,3.36t0.4,3.53q0.13,1.81.13,3.69t-0.13,3.73q-0.13,1.83-.4,3.58t-0.67,3.44q-0.4,1.68-.93,3.29t-1.16,3.1q-0.63,1.5-1.36,2.88t-1.56,2.66q-0.83,1.27-1.75,2.44a29,29,0,0,1-1.95,2.16,26.1,26.1,0,0,1-2.1,1.89,24.27,24.27,0,0,1-2.27,1.62,23.48,23.48,0,0,1-2.43,1.34,21.63,21.63,0,0,1-2.54,1,21.36,21.36,0,0,1-2.64.7,22.09,22.09,0,0,1-2.74.36,23.84,23.84,0,0,1-2.83,0l-14.71-.73M257.45,47V36.19L269,35.6a25,25,0,0,1,3.7.07,18.08,18.08,0,0,1,3.28.61,14,14,0,0,1,2.84,1.16,12.26,12.26,0,0,1,2.39,1.71,11.37,11.37,0,0,1,1.9,2.26,13.5,13.5,0,0,1,1.36,2.82,18.35,18.35,0,0,1,.82,3.38,26.63,26.63,0,0,1,.27,3.94q0,0.5,0,1t-0.05,1q0,0.5-.09,1t-0.13,1q-0.07.52-.18,1t-0.23,1q-0.13.49-.29,1t-0.34.94q-0.18.45-.39,0.89t-0.44.87q-0.24.43-.5,0.85t-0.57.82q-0.29.39-.61,0.75t-0.68.69q-0.36.33-.75,0.64t-0.81.58q0.48,0.29.92,0.61t0.85,0.68q0.41,0.36.78,0.75t0.71,0.81q0.33,0.43.62,0.88t0.56,0.92q0.27,0.47.5,0.95t0.44,1q0.21,0.5.38,1t0.32,1q0.15,0.52.26,1.05t0.2,1.08q0.09,0.55.15,1.08t0.11,1.05q0,0.52.07,1t0,1q0,1-.07,2t-0.22,1.9q-0.15.93-.37,1.84T285.24,88a16.79,16.79,0,0,1-.66,1.68,15.69,15.69,0,0,1-.82,1.55,15.43,15.43,0,0,1-1,1.43,16,16,0,0,1-1.13,1.32,14.06,14.06,0,0,1-1.28,1.18,14.61,14.61,0,0,1-1.43,1,15.8,15.8,0,0,1-1.58.87,17.69,17.69,0,0,1-1.72.72,16.56,16.56,0,0,1-1.86.55,19.56,19.56,0,0,1-2,.36q-1,.13-2.17.17t-2.32,0l-9.82-.48V87.51l11.11,0.35a16.08,16.08,0,0,0,2-.05,12.49,12.49,0,0,0,1.81-.3A10.27,10.27,0,0,0,274,87a9.19,9.19,0,0,0,1.46-.79,5.89,5.89,0,0,0,1.2-1.05,5.76,5.76,0,0,0,.86-1.33,6.92,6.92,0,0,0,.52-1.6,9.59,9.59,0,0,0,.17-1.87,14.17,14.17,0,0,0-.12-1.88,10,10,0,0,0-.35-1.64,7.29,7.29,0,0,0-.58-1.39,5.72,5.72,0,0,0-.81-1.13,7.3,7.3,0,0,0-1-.85,6.23,6.23,0,0,0-1.09-.62,6,6,0,0,0-1.19-.38,6.64,6.64,0,0,0-1.3-.13l-5.59,0V61.35l5.59-.06a6.73,6.73,0,0,0,1.28-.13,5.36,5.36,0,0,0,1.13-.36,4.86,4.86,0,0,0,1-.59,5.14,5.14,0,0,0,.83-0.82,5,5,0,0,0,.66-1,7.11,7.11,0,0,0,.47-1.29,10.72,10.72,0,0,0,.29-1.56,16.17,16.17,0,0,0,.1-1.81,12.25,12.25,0,0,0-.13-1.85,7.9,7.9,0,0,0-.39-1.56,5.39,5.39,0,0,0-.65-1.25,4.33,4.33,0,0,0-.91-0.95,5.43,5.43,0,0,0-1.21-.71,8.44,8.44,0,0,0-1.55-.49,13.42,13.42,0,0,0-1.88-.26,20.76,20.76,0,0,0-2.2,0L257.45,47m88.76-27.76L245.32,26.11v83.23l100.89,6.91v-97" transform="translate(-17.6 -19.21)" style="fill:#545454"/></g></g></svg>