<svg id="Layer_1" data-name="Layer 1" xmlns="http://www.w3.org/2000/svg" xmlns:xlink="http://www.w3.org/1999/xlink" viewBox="0 0 157.44 46.5"><defs><style>.cls-1{fill:none;}.cls-2{filter:url(#AI_Shadow_1);}.cls-3{isolation:isolate;}.cls-4{clip-path:url(#clip-path);}.cls-5{fill:#fff;}.cls-6{clip-path:url(#clip-path-2);}</style><filter id="AI_Shadow_1" name="AI_Shadow_1"><feGaussianBlur result="blur" stdDeviation="4" in="SourceAlpha"/><feOffset in="blur"/><feComponentTransfer><feFuncA type="linear" slope="0.2"/></feComponentTransfer><feMerge><feMergeNode/><feMergeNode in="SourceGraphic"/></feMerge></filter><clipPath id="clip-path" transform="translate(-28.29 -25.08)"><polygon class="cls-1" points="28.29 69.37 28.29 26.92 132.31 32.82 132.31 63.47 28.29 69.37"/></clipPath><clipPath id="clip-path-2" transform="translate(-28.29 -25.08)"><polygon class="cls-1" points="137.39 68.27 137.39 28.39 185.73 25.08 185.73 71.58 137.39 68.27"/></clipPath></defs><title>logo</title><g class="cls-2"><g class="cls-3"><g class="cls-4"><polyline class="cls-5" points="23.42 3.17 17.38 2.82 17.38 19.32 6.61 19.21 6.61 2.21 0 1.84 0 44.29 6.61 43.91 6.61 26.45 17.38 26.35 17.38 43.3 23.42 42.96 23.42 3.17"/><path class="cls-5" d="M79.53,29.83l-5.09-.29v9.77q0,0.73,0,1.4T74.35,42q0,0.61-.11,1.16t-0.15,1q-0.09.5-.21,0.94T73.63,46a7.42,7.42,0,0,1-.31.74,5.82,5.82,0,0,1-.36.65,5.2,5.2,0,0,1-.41.55,4.82,4.82,0,0,1-.47.48,4.6,4.6,0,0,1-1.1.72,6.36,6.36,0,0,1-.64.24,6.8,6.8,0,0,1-.69.17q-0.36.07-.75,0.11t-0.81,0h-1q-0.43,0-.83,0t-0.78-.1a6.83,6.83,0,0,1-.72-0.16,5.65,5.65,0,0,1-.66-0.23,4.23,4.23,0,0,1-1.15-.72,4.53,4.53,0,0,1-.49-0.49A5.13,5.13,0,0,1,62,47.35a6.78,6.78,0,0,1-.38-0.69,8.31,8.31,0,0,1-.33-0.78Q61.16,45.47,61,45t-0.22-1q-0.09-.52-0.16-1.09t-0.12-1.21q0-.63-0.07-1.33t0-1.46V28.74l-5.74-.33V38.78q0,1.92.17,3.65a27.46,27.46,0,0,0,.51,3.25,20.46,20.46,0,0,0,.84,2.85A15.68,15.68,0,0,0,57.39,51a12.27,12.27,0,0,0,1.46,2,10.23,10.23,0,0,0,1.73,1.52,9.75,9.75,0,0,0,2,1.06,10.76,10.76,0,0,0,2.23.6V67.3L70.21,67V56a10.26,10.26,0,0,0,2.13-.68,9.47,9.47,0,0,0,1.86-1.1,10.14,10.14,0,0,0,1.6-1.51,12.34,12.34,0,0,0,1.33-1.92,14.81,14.81,0,0,0,1.06-2.3,19.53,19.53,0,0,0,.75-2.66,26.63,26.63,0,0,0,.45-3q0.15-1.6.15-3.39V29.83" transform="translate(-28.29 -25.08)"/><path class="cls-5" d="M91.19,30.49L82.06,30V36.3l4.86,0.18,4.17,0.15a6,6,0,0,1,.61.05,5.58,5.58,0,0,1,.58.11,5.42,5.42,0,0,1,1.07.39,5.12,5.12,0,0,1,.48.29,5.33,5.33,0,0,1,.44.34q0.21,0.18.41,0.38T95,38.61q0.17,0.23.32,0.47t0.28,0.51q0.13,0.26.25,0.54t0.21,0.58q0.1,0.3.17,0.61t0.12,0.63q0,0.32.07,0.64t0,0.66q0,0.35,0,.69t-0.07.66q0,0.32-.12.63t-0.17.61q-0.1.3-.21,0.57t-0.25.53q-0.13.26-.29,0.5a5.53,5.53,0,0,1-.33.46,5.44,5.44,0,0,1-.37.41,5.16,5.16,0,0,1-.41.36,4.85,4.85,0,0,1-.45.32,4.57,4.57,0,0,1-.48.26,4.66,4.66,0,0,1-.51.22,4.72,4.72,0,0,1-.54.16,5.08,5.08,0,0,1-.57.1,5.78,5.78,0,0,1-.6,0l-4.17,0-4.86,0V66.32L86.92,66V56l4.28-.11a9.88,9.88,0,0,0,1.11-.09,9,9,0,0,0,1-.21,8.4,8.4,0,0,0,1-.32,8.18,8.18,0,0,0,.92-0.44,9.3,9.3,0,0,0,.86-0.53,9.14,9.14,0,0,0,.79-0.62A9.29,9.29,0,0,0,97.61,53a9.74,9.74,0,0,0,.65-0.79q0.3-.42.57-0.87t0.5-.95q0.23-.49.43-1t0.36-1.1q0.16-.56.28-1.15t0.2-1.2q0.08-.61.12-1.24t0-1.28q0-.66,0-1.29t-0.12-1.25q-0.08-.61-0.2-1.2t-0.28-1.16q-0.15-.57-0.35-1.11t-0.43-1q-0.23-.5-0.5-1t-0.58-.9a10,10,0,0,0-.65-0.83,9.53,9.53,0,0,0-.72-0.74,9.41,9.41,0,0,0-.79-0.65,9.64,9.64,0,0,0-.86-0.56,8.46,8.46,0,0,0-.92-0.47,8.62,8.62,0,0,0-1-.35,9.2,9.2,0,0,0-1.05-.24,10.25,10.25,0,0,0-1.12-.12" transform="translate(-28.29 -25.08)"/><polyline class="cls-5" points="85.96 6.71 74.27 6.05 74.27 40.07 86.12 39.4 86.12 33.73 78.55 34.01 78.55 25.75 84.94 25.69 84.94 19.98 78.55 19.91 78.55 12.13 85.96 12.41 85.96 6.71"/><path class="cls-5" d="M120.2,37.71l-3.9-.14,3.9,0.14m4.27-5.33-8.15-.46v5.65l3.88,0.14,4.18,0.15a5.39,5.39,0,0,1,1,.12,4.06,4.06,0,0,1,.84.28,3.55,3.55,0,0,1,.72.45,3.73,3.73,0,0,1,.61.61,4,4,0,0,1,.48.77,5.31,5.31,0,0,1,.34.93,7.54,7.54,0,0,1,.2,1.09,11,11,0,0,1,.07,1.26,9.25,9.25,0,0,1-.09,1.31,6.59,6.59,0,0,1-.27,1.15,5,5,0,0,1-.44,1,4.21,4.21,0,0,1-.62.81,4.86,4.86,0,0,1-.81.65,6,6,0,0,1-1,.52,8,8,0,0,1-1.19.38,11.18,11.18,0,0,1-1.39.23,3.14,3.14,0,0,0-.51.08,2.46,2.46,0,0,0-.45.16,2.13,2.13,0,0,0-.39.24,2.09,2.09,0,0,0-.33.31,2,2,0,0,0-.26.38,2.51,2.51,0,0,0-.19.46,3.37,3.37,0,0,0-.11.53,4.6,4.6,0,0,0,0,.61,4.07,4.07,0,0,0,.06.72,4.72,4.72,0,0,0,.19.73,5.87,5.87,0,0,0,.32.75,7.64,7.64,0,0,0,.45.76l5.69,8.62,5-.28-6.33-9.85a7.84,7.84,0,0,0,.89-0.27,7.16,7.16,0,0,0,.81-0.36,6.76,6.76,0,0,0,.73-0.44A6.61,6.61,0,0,0,129,52q0.31-.28.58-0.58t0.52-.62q0.24-.32.46-0.65t0.4-.69q0.18-.36.34-0.72t0.29-.75q0.13-.38.23-0.77t0.18-.8q0.08-.4.13-0.8t0.1-.79q0-.39.06-0.78t0-.77q0-.64,0-1.25t-0.11-1.17q-0.07-.57-0.18-1.1t-0.26-1q-0.15-.49-0.32-1T131,36.93q-0.2-.42-0.44-0.8t-0.49-.73a8.2,8.2,0,0,0-.55-0.65,7.77,7.77,0,0,0-.6-0.57,7.62,7.62,0,0,0-.65-0.5,7.75,7.75,0,0,0-.7-0.43,7.83,7.83,0,0,0-.74-0.34,7.46,7.46,0,0,0-1.56-.44,7.82,7.82,0,0,0-.83-0.09" transform="translate(-28.29 -25.08)"/></g></g><g class="cls-3"><g class="cls-6"><path class="cls-5" d="M159.39,63.83V32.44l7-.36a12.75,12.75,0,0,1,1.37,0,11.47,11.47,0,0,1,1.32.15,10.71,10.71,0,0,1,1.28.3,10.47,10.47,0,0,1,1.23.46,11.54,11.54,0,0,1,3.25,2.15,12.18,12.18,0,0,1,.93,1q0.44,0.52.84,1.1t0.75,1.21q0.35,0.63.65,1.31t0.55,1.42q0.25,0.75.44,1.53t0.31,1.61q0.13,0.83.19,1.69t0.06,1.78q0,0.91-.06,1.78t-0.19,1.71q-0.13.84-.32,1.65t-0.45,1.59q-0.25.77-.56,1.49t-0.65,1.38q-0.35.66-.75,1.27t-0.84,1.15a13.29,13.29,0,0,1-.93,1,12.27,12.27,0,0,1-1,.91,11.9,11.9,0,0,1-1.09.78,12.13,12.13,0,0,1-1.17.65,10.36,10.36,0,0,1-1.22.49,10.23,10.23,0,0,1-1.27.33,10.58,10.58,0,0,1-1.31.17,11.42,11.42,0,0,1-1.36,0l-7-.35M143.21,38.38V33.22l5.55-.28a12.16,12.16,0,0,1,1.77,0,8.69,8.69,0,0,1,1.57.29,6.62,6.62,0,0,1,1.36.55,5.72,5.72,0,0,1,1.15.83,5.45,5.45,0,0,1,.91,1.08,6.47,6.47,0,0,1,.65,1.35,8.79,8.79,0,0,1,.39,1.62,12.76,12.76,0,0,1,.13,1.89q0,0.24,0,.48t0,0.48q0,0.24,0,.48t-0.06.49q0,0.24-.08.47t-0.11.47q-0.06.23-.14,0.46t-0.16.45q-0.08.22-.18,0.44t-0.21.42q-0.11.21-.24,0.4t-0.27.38q-0.14.19-.29,0.37t-0.33.34l-0.36.31-0.39.28,0.45,0.29q0.22,0.15.41,0.32a5,5,0,0,1,.37.36,4.85,4.85,0,0,1,.33.4l0.3,0.42q0.14,0.21.27,0.44T156.14,50q0.11,0.23.21,0.46t0.18,0.49q0.08,0.25.15,0.5t0.13,0.51q0.06,0.25.1,0.51T157,53q0,0.26.05,0.51t0,0.49q0,0.24,0,.47,0,0.48,0,.94t-0.11.91q-0.07.45-.18,0.88t-0.25.84a8.29,8.29,0,0,1-.32.81,7.71,7.71,0,0,1-.39.75,7.38,7.38,0,0,1-1,1.33,6.91,6.91,0,0,1-.61.57,7,7,0,0,1-.68.49,7.43,7.43,0,0,1-.75.42A8.23,8.23,0,0,1,151,63a9.54,9.54,0,0,1-1,.17q-0.5.06-1,.08t-1.11,0L143.21,63V57.81L148.53,58a7.75,7.75,0,0,0,1,0,6,6,0,0,0,.87-0.14,4.87,4.87,0,0,0,.78-0.26,4.21,4.21,0,0,0,.69-0.38,3,3,0,0,0,.58-0.51,2.79,2.79,0,0,0,.41-0.64,3.31,3.31,0,0,0,.25-0.77,4.66,4.66,0,0,0,.08-0.9,6.72,6.72,0,0,0-.06-0.9,4.71,4.71,0,0,0-.17-0.78,3.44,3.44,0,0,0-.28-0.66,2.77,2.77,0,0,0-.39-0.54,3.3,3.3,0,0,0-.48-0.41,2.82,2.82,0,0,0-1.09-.47,3.31,3.31,0,0,0-.62-0.06l-2.68,0V45.25l2.68,0a3.39,3.39,0,0,0,.61-0.06,2.6,2.6,0,0,0,.54-0.17,2.27,2.27,0,0,0,.47-0.28,2.36,2.36,0,0,0,.4-0.39,2.64,2.64,0,0,0,.32-0.5,3.5,3.5,0,0,0,.23-0.62,5,5,0,0,0,.14-0.74,7.33,7.33,0,0,0,0-.86,5.85,5.85,0,0,0-.06-0.89,3.77,3.77,0,0,0-.19-0.75,2.62,2.62,0,0,0-.32-0.61,2.18,2.18,0,0,0-.45-0.46,2.66,2.66,0,0,0-.58-0.33,4.17,4.17,0,0,0-.74-0.23,6.59,6.59,0,0,0-.9-0.12,10,10,0,0,0-1.06,0l-5.32.18m42.53-13.3-48.34,3.31V68.27l48.34,3.31V25.08" transform="translate(-28.29 -25.08)"/><path class="cls-5" d="M166.44,37.65l-2.81.09V58.5l2.81,0.09a8.31,8.31,0,0,0,.9,0,7.43,7.43,0,0,0,.87-0.12,6.93,6.93,0,0,0,.84-0.22,6.78,6.78,0,0,0,.8-0.32,7.14,7.14,0,0,0,.76-0.41,7.33,7.33,0,0,0,.7-0.49,7.68,7.68,0,0,0,.65-0.57,8.16,8.16,0,0,0,.59-0.65q0.28-.35.54-0.73t0.47-.79q0.22-.41.41-0.86t0.35-.94q0.15-.49.26-1t0.19-1q0.08-.53.12-1.08t0-1.12q0-.59,0-1.15T174.77,46q-0.08-.54-0.2-1.06t-0.28-1q-0.16-.49-0.35-1t-0.42-.88q-0.22-.42-0.48-0.81a9.11,9.11,0,0,0-.54-0.74,8,8,0,0,0-.6-0.67,7.82,7.82,0,0,0-.65-0.58,8.08,8.08,0,0,0-.7-0.5q-0.36-.23-0.75-0.43A7,7,0,0,0,169,38a6.88,6.88,0,0,0-.83-0.23,7.09,7.09,0,0,0-.86-0.12,7.61,7.61,0,0,0-.89,0" transform="translate(-28.29 -25.08)"/></g></g></g></svg>